<svg width="100" height="100" viewBox="0 0 100 100" fill="none" xmlns="http://www.w3.org/2000/svg">
<rect width="100" height="100" rx="10" fill="#304FFF"/>
<path fill-rule="evenodd" clip-rule="evenodd" d="M73.1756 49.1461C80.733 52.5235 82.517 58.0787 82.517 64.681C82.517 78.298 71.3158 90 51.4492 90H41.3048C22.2838 90 8.96913 80.2128 14.8868 57.0212L22.2838 27.0213C26.5107 11.9149 28.4128 10 47.2224 10H62.6507C76.1767 10 86.5326 15.9575 86.5326 29.7873C86.5326 36.6379 83.1945 44.5577 73.1756 49.1461ZM57.1557 54.4681H42.5729L45.5317 42.9788H56.7331C68.3569 42.9788 73.429 38.9362 73.429 31.0638C73.429 23.8298 69.2022 21.4894 59.6919 21.4894H46.1657C37.0779 21.4894 36.4439 21.9149 34.3304 30.4256L27.1447 58.5107C24.1859 70.6382 29.4695 78.5107 43.6296 78.5107H51.238C64.3413 78.5107 69.4137 72.1278 69.4137 64.8936C69.4137 57.6598 66.8775 54.4681 57.1557 54.4681Z" fill="white"/>
</svg>
